<?xml version="1.0" encoding="UTF-8" standalone="no"?>
<!-- Created with Inkscape (http://www.inkscape.org/) -->

<svg
   width="140mm"
   height="100mm"
   viewBox="0 0 140 100"
   version="1.1"
   id="svg5"
   inkscape:version="1.2 (dc2aeda, 2022-05-15)"
   sodipodi:docname="logo.svg"
   xml:space="preserve"
   xmlns:inkscape="http://www.inkscape.org/namespaces/inkscape"
   xmlns:sodipodi="http://sodipodi.sourceforge.net/DTD/sodipodi-0.dtd"
   xmlns:xlink="http://www.w3.org/1999/xlink"
   xmlns="http://www.w3.org/2000/svg"
   xmlns:svg="http://www.w3.org/2000/svg"><sodipodi:namedview
     id="namedview7"
     pagecolor="#505050"
     bordercolor="#eeeeee"
     borderopacity="1"
     inkscape:showpageshadow="0"
     inkscape:pageopacity="0"
     inkscape:pagecheckerboard="0"
     inkscape:deskcolor="#505050"
     inkscape:document-units="mm"
     showgrid="false"
     inkscape:zoom="1.7099615"
     inkscape:cx="286.26376"
     inkscape:cy="190.64757"
     inkscape:window-width="1512"
     inkscape:window-height="844"
     inkscape:window-x="0"
     inkscape:window-y="38"
     inkscape:window-maximized="0"
     inkscape:current-layer="layer2" /><defs
     id="defs2"><pattern
       inkscape:collect="always"
       xlink:href="#Strips1_3"
       id="pattern35590"
       patternTransform="matrix(0.26719686,0.29499043,0.82089207,-0.74354894,2.5827308e-6,-3.5639087e-7)" /><pattern
       inkscape:collect="always"
       patternUnits="userSpaceOnUse"
       width="4"
       height="1"
       patternTransform="translate(0,0) scale(10,10)"
       id="Strips1_3"
       inkscape:stockid="Stripes 1:3"><rect
         style="fill:black;stroke:none"
         x="0"
         y="-0.5"
         width="1"
         height="2"
         id="rect34624" /></pattern><inkscape:path-effect
       effect="perspective-envelope"
       up_left_point="-32.376535,71.571922"
       up_right_point="-30.992008,71.593699"
       down_left_point="-32.789176,76.750168"
       down_right_point="-30.870626,76.750168"
       id="path-effect10922"
       is_visible="true"
       lpeversion="1"
       deform_type="perspective"
       horizontal_mirror="false"
       vertical_mirror="false"
       overflow_perspective="false" /><inkscape:path-effect
       effect="perspective-envelope"
       up_left_point="-32.789176,71.520342"
       up_right_point="-30.870626,71.520342"
       down_left_point="-32.789176,76.750168"
       down_right_point="-30.870626,76.750168"
       id="path-effect10920"
       is_visible="true"
       lpeversion="1"
       deform_type="perspective"
       horizontal_mirror="false"
       vertical_mirror="false"
       overflow_perspective="false" /><inkscape:path-effect
       effect="perspective-envelope"
       up_left_point="58.185924,47.588166"
       up_right_point="62.000403,48.172615"
       down_left_point="58.151389,52.514062"
       down_right_point="61.546846,53.095797"
       id="path-effect6470"
       is_visible="true"
       lpeversion="1"
       deform_type="perspective"
       horizontal_mirror="false"
       vertical_mirror="false"
       overflow_perspective="false" /><inkscape:path-effect
       effect="perspective-envelope"
       up_left_point="57.97,47.641099"
       up_right_point="61.558743,47.641099"
       down_left_point="58.065414,52.691612"
       down_right_point="61.558743,52.691612"
       id="path-effect6372"
       is_visible="true"
       lpeversion="1"
       deform_type="perspective"
       horizontal_mirror="false"
       vertical_mirror="false"
       overflow_perspective="false" /><filter
       inkscape:menu="Color"
       inkscape:menu-tooltip="Colorize separately the three color channels"
       inkscape:label="Paint Channels"
       style="color-interpolation-filters:sRGB;"
       id="filter51475"
       x="-7.934088e-05"
       y="-7.4416813e-05"
       width="1.0001587"
       height="1.0001488"><feColorMatrix
         type="saturate"
         values="0"
         result="result3"
         id="feColorMatrix51441" /><feColorMatrix
         in="SourceGraphic"
         values="0 0 0 0 0 0 0 0 0 0 0 0 0 0 0 1 -0.5 -0.5 0 0 "
         result="colormatrix"
         id="feColorMatrix51443" /><feFlood
         flood-color="rgb(68,0,134)"
         result="result1"
         flood-opacity="1"
         id="feFlood51445" /><feComposite
         in2="colormatrix"
         operator="in"
         result="result2"
         id="feComposite51447" /><feComposite
         in2="colormatrix"
         result="result12"
         operator="arithmetic"
         k2="1"
         k3="-0.5"
         id="feComposite51449" /><feBlend
         in2="result3"
         mode="normal"
         in="result12"
         result="result6"
         id="feBlend51451" /><feColorMatrix
         result="colormatrix"
         values="0 0 0 0 0 0 0 0 0 0 0 0 0 0 0 -0.5 1 -0.5 0 0 "
         in="SourceGraphic"
         id="feColorMatrix51453" /><feFlood
         flood-color="rgb(254,63,0)"
         result="result4"
         flood-opacity="1"
         id="feFlood51455" /><feComposite
         in2="colormatrix"
         operator="in"
         result="result5"
         id="feComposite51457" /><feComposite
         in2="colormatrix"
         result="result13"
         operator="arithmetic"
         k2="1"
         k3="-0.5"
         id="feComposite51459" /><feBlend
         in2="result6"
         in="result13"
         mode="normal"
         result="result9"
         id="feBlend51461" /><feColorMatrix
         in="SourceGraphic"
         values="0 0 0 0 0 0 0 0 0 0 0 0 0 0 0 -0.5 -0.5 1 0 0 "
         result="colormatrix"
         id="feColorMatrix51463" /><feFlood
         flood-color="rgb(255,204,0)"
         result="result7"
         flood-opacity="1"
         id="feFlood51465" /><feComposite
         in2="colormatrix"
         operator="in"
         result="result8"
         id="feComposite51467" /><feComposite
         in2="colormatrix"
         result="result14"
         operator="arithmetic"
         k2="1"
         k3="-0.5"
         id="feComposite51469" /><feBlend
         in2="result9"
         mode="normal"
         in="result14"
         result="result10"
         id="feBlend51471" /><feComposite
         in2="SourceGraphic"
         operator="in"
         result="result11"
         in="result10"
         id="feComposite51473" /><feGaussianBlur
         stdDeviation="0.00045751323"
         id="feGaussianBlur51477" /></filter></defs><g
     inkscape:groupmode="layer"
     id="layer2"
     inkscape:label="Layer 2"
     transform="matrix(0.95782754,0,0,0.95782754,140.16715,64.969694)"
     style="fill:#000000;fill-opacity:0.0101695;stroke-width:1.04403"><rect
       style="fill:#ffffff;fill-opacity:0.9;stroke:none;stroke-width:0.522014;stroke-linecap:round;stroke-linejoin:round;stroke-dasharray:none;stroke-opacity:1"
       id="rect7434"
       width="73.506966"
       height="73.637306"
       x="-109.06665"
       y="-57.338375" /><text
       xml:space="preserve"
       style="font-size:7.36622px;font-family:Arial;-inkscape-font-specification:Arial;fill:#ffffff;fill-opacity:0.738983;stroke:none;stroke-width:1.25284;stroke-linecap:round;stroke-linejoin:round;stroke-dasharray:none;stroke-opacity:1"
       x="-73.714355"
       y="-6.5338054"
       id="text10978"
       inkscape:export-filename="logo.png"
       inkscape:export-xdpi="640"
       inkscape:export-ydpi="640"><tspan
         sodipodi:role="line"
         id="tspan10976"
         style="fill:#000000;fill-opacity:1;stroke-width:1.25284;stroke-dasharray:none"
         x="-73.714355"
         y="-6.5338054">8</tspan></text><path
       id="path30261"
       style="fill:#000000;fill-opacity:0.15;stroke:none;stroke-width:0.522014;stroke-linecap:round;stroke-linejoin:bevel;stroke-dasharray:0.522014, 1.04403;stroke-dashoffset:0;stroke-opacity:1"
       d="m -70.999218,-46.848595 a 28.4874,28.4874 0 0 0 -28.487583,28.48758 28.4874,28.4874 0 0 0 28.487583,28.487582 28.4874,28.4874 0 0 0 23.9729,-13.1334644 c -5.03967,2.73736804 -14.72816,7.218352 -24.0371,7.124323 -13.37692,-0.135122 -20.67325,-7.026301 -23.37566,-14.1876806 -2.70241,-7.16138 -4.053503,-20.673307 8.10732,-29.99661 12.16084,-9.323305 27.02387,-3.918513 27.02387,-3.918513 l 0.24171,-0.241704 a 28.4874,28.4874 0 0 0 -11.93304,-2.621513 z" /><path
       style="mix-blend-mode:normal;fill:url(#pattern35590);fill-opacity:1;stroke:none;stroke-width:0.522014;stroke-linecap:round;stroke-linejoin:bevel;stroke-dasharray:0.522014, 1.04403;stroke-dashoffset:0;stroke-opacity:1;filter:url(#filter51475)"
       d="m -91.106028,-17.845728 1.82742,-7.07108 2.12945,-4.969568 9.88255,2.031612 -1.20399,8.646759 -0.32305,4.076786 -7.27824,-1.306053 z"
       id="path33244" /><path
       style="fill:#000000;fill-opacity:0.15000001;stroke:none;stroke-width:0.522014;stroke-linecap:round;stroke-linejoin:bevel;stroke-dasharray:0.522014, 1.04403;stroke-dashoffset:0;stroke-opacity:1"
       d="m -93.030479,-0.30083317 c 0,0 -0.03667,-2.07251903 1.175495,-4.11406143 1.212167,-2.0415396 2.870917,-5.0400543 8.229962,-6.6350084 5.359045,-1.594954 11.866459,-2.424329 17.991081,-3.572698 6.124624,-1.148366 13.397614,-2.870914 16.077135,-4.976255 2.679524,-2.105339 5.550441,-4.529668 6.252222,-5.933228 0.701777,-1.403561 -1.275964,-0.956973 -1.275964,-0.956973 l -3.4451,2.934716 -4.083082,2.679521 -5.167652,2.105341 -5.040054,1.531156 -9.123136,1.658753 -7.27299,1.020768 -5.422844,1.339762 -7.081597,4.4020727 -2.615722,4.6572648 0.0638,2.8709174 z"
       id="path40030" /><ellipse
       style="fill:#000000;fill-opacity:0.15;stroke:none;stroke-width:0.522014;stroke-linecap:round;stroke-linejoin:bevel;stroke-dasharray:0.522014, 1.04403;stroke-dashoffset:0;stroke-opacity:1"
       id="path46381"
       cx="-70.348129"
       cy="13.182186"
       rx="20.880861"
       ry="3.3039336" /></g><g
     inkscape:label="Layer 1"
     inkscape:groupmode="layer"
     id="layer1"><path
       style="fill:none;fill-opacity:1;stroke:#2426ec;stroke-width:0.5;stroke-linecap:round;stroke-linejoin:bevel;stroke-dasharray:0.5, 1;stroke-dashoffset:0;stroke-opacity:1"
       d="m 76.145739,28.840634 c 0,0 1.615028,6.144528 2.163352,9.263021 0.643448,3.659491 1.150149,11.231769 1.150149,11.231769 0,0 7.261247,-1.026587 10.731686,-2.193591 3.113868,-1.0471 6.418558,-3.407481 6.418558,-3.407481 0,0 -2.630844,-6.951724 -4.766847,-9.853645 -2.210592,-3.003255 -8.161924,-7.533498 -8.161924,-7.533498 0,0 -1.737661,1.021722 -2.674993,1.379294 -1.61335,0.615458 -4.859981,1.114131 -4.859981,1.114131 z"
       id="path30258"
       sodipodi:nodetypes="cscscscsc" /><g
       inkscape:label="WireframeSphere"
       transform="matrix(1.0312825,0,0,1.0312825,72.040602,47.261655)"
       id="g1406"
       style="stroke-width:0.678766;stroke-dasharray:none"><g
         inkscape:label="Lines of Latitude"
         id="g1402"
         style="stroke-width:0.678766;stroke-dasharray:none"><path
           sodipodi:cx="0"
           sodipodi:cy="22.400518"
           sodipodi:rx="11.47984"
           sodipodi:ry="3.9273367"
           sodipodi:type="arc"
           sodipodi:arc-type="arc"
           sodipodi:start="0.85686275"
           sodipodi:end="2.2847299"
           sodipodi:open="true"
           d="m 7.5171348,25.368768 a 11.47984,3.9273367 0 0 1 -15.0342696,0"
           style="fill:none;stroke:#000000;stroke-width:0.678766;stroke-dasharray:none"
           id="path1390" /><path
           sodipodi:cx="0"
           sodipodi:cy="15.50164"
           sodipodi:rx="20.685959"
           sodipodi:ry="7.0760145"
           sodipodi:type="arc"
           sodipodi:arc-type="arc"
           sodipodi:start="0.29449495"
           sodipodi:end="2.8470977"
           sodipodi:open="true"
           d="M 19.795405,17.5555 A 20.685959,7.0760145 0 0 1 0,22.577655 20.685959,7.0760145 0 0 1 -19.795405,17.5555"
           style="fill:none;stroke:#000000;stroke-width:0.678766;stroke-dasharray:none"
           id="path1392" /><path
           sodipodi:cx="0"
           sodipodi:cy="5.5324712"
           sodipodi:rx="25.794968"
           sodipodi:ry="8.8233986"
           sodipodi:type="arc"
           sodipodi:arc-type="arc"
           sodipodi:start="0.083169681"
           sodipodi:end="3.058423"
           sodipodi:open="true"
           d="M 25.705805,6.2654647 A 25.794968,8.8233986 0 0 1 0,14.35587 25.794968,8.8233986 0 0 1 -25.705805,6.2654645"
           style="fill:none;stroke:#000000;stroke-width:0.678766;stroke-dasharray:none"
           id="path1394" /><path
           sodipodi:cx="0"
           sodipodi:cy="-5.5324712"
           sodipodi:rx="25.794968"
           sodipodi:ry="8.8233986"
           sodipodi:type="arc"
           sodipodi:arc-type="arc"
           sodipodi:start="6.2000156"
           sodipodi:end="3.2247623"
           sodipodi:open="true"
           d="m 25.705805,-6.2654649 a 25.794968,8.8233986 0 0 1 -12.194044,8.2490538 25.794968,8.8233986 0 0 1 -27.023521,2e-7 25.794968,8.8233986 0 0 1 -12.194045,-8.2490535"
           style="fill:none;stroke:#000000;stroke-width:0.678766;stroke-dasharray:none"
           id="path1396" /><path
           sodipodi:cx="0"
           sodipodi:cy="-15.50164"
           sodipodi:rx="20.685959"
           sodipodi:ry="7.0760145"
           sodipodi:type="arc"
           sodipodi:arc-type="arc"
           sodipodi:start="5.9886904"
           sodipodi:end="3.4360876"
           sodipodi:open="true"
           d="m 19.795405,-17.5555 a 20.685959,7.0760145 0 0 1 -7.74646,7.8056151 20.685959,7.0760145 0 0 1 -24.09789,-2e-7 20.685959,7.0760145 0 0 1 -7.74646,-7.8056149"
           style="fill:none;stroke:#000000;stroke-width:0.678766;stroke-dasharray:none"
           id="path1398" /><path
           sodipodi:cx="0"
           sodipodi:cy="-22.400518"
           sodipodi:rx="11.47984"
           sodipodi:ry="3.9273367"
           sodipodi:type="arc"
           sodipodi:arc-type="arc"
           sodipodi:start="5.4263226"
           sodipodi:end="3.9984554"
           sodipodi:open="true"
           d="M 7.5171352,-25.368768 A 11.47984,3.9273367 0 0 1 10.756163,-21.028174 11.47984,3.9273367 0 0 1 0,-18.473182 a 11.47984,3.9273367 0 0 1 -10.756163,-2.554992 11.47984,3.9273367 0 0 1 3.2390281,-4.340594"
           style="fill:none;stroke:#000000;stroke-width:0.678766;stroke-dasharray:none"
           id="path1400" /></g><circle
         style="fill:none;stroke:#000000;stroke-width:0.678766;stroke-dasharray:none"
         id="path1404"
         cx="0"
         cy="0"
         r="26.458334" /></g><circle
       style="fill:none;fill-opacity:1;stroke:#000000;stroke-width:1.2;stroke-linecap:round;stroke-linejoin:round;stroke-dasharray:none;stroke-opacity:1"
       id="path1584"
       cx="72.16198"
       cy="47.383049"
       r="27.286016" /><g
       inkscape:label="Lines of Longitude"
       id="g1388"
       style="stroke-width:0.678766;stroke-dasharray:none"
       transform="matrix(1.0312825,0,0,1.0312825,72.040601,47.261656)"><path
         sodipodi:cx="0"
         sodipodi:cy="0"
         sodipodi:rx="6.8540893"
         sodipodi:ry="26.458334"
         sodipodi:type="arc"
         sodipodi:arc-type="arc"
         sodipodi:start="1.5707963"
         sodipodi:end="4.712389"
         sodipodi:open="true"
         d="m 0,26.458334 a 6.8540893,26.458334 0 0 1 -5.9358154,-13.229167 6.8540893,26.458334 0 0 1 0,-26.458334 A 6.8540893,26.458334 0 0 1 0,-26.458334"
         style="fill:none;stroke:#000000;stroke-width:0.678766;stroke-dasharray:none"
         transform="rotate(5.60124)"
         id="path1376" /><path
         sodipodi:cx="0"
         sodipodi:cy="0"
         sodipodi:rx="17.885731"
         sodipodi:ry="26.458334"
         sodipodi:type="arc"
         sodipodi:arc-type="arc"
         sodipodi:start="1.5707963"
         sodipodi:end="4.712389"
         sodipodi:open="true"
         d="m 0,26.458334 a 17.885731,26.458334 0 0 1 -15.489497,-13.229167 17.885731,26.458334 0 0 1 0,-26.458334 A 17.885731,26.458334 0 0 1 0,-26.458334"
         style="fill:none;stroke:#000000;stroke-width:0.678766;stroke-dasharray:none"
         transform="rotate(19.5027)"
         id="path1378" /><path
         sodipodi:cx="0"
         sodipodi:cy="0"
         sodipodi:rx="24.125172"
         sodipodi:ry="26.458334"
         sodipodi:type="arc"
         sodipodi:arc-type="arc"
         sodipodi:start="1.5707963"
         sodipodi:end="4.712389"
         sodipodi:open="true"
         d="m 0,26.458334 a 24.125172,26.458334 0 0 1 -20.893011,-13.229167 24.125172,26.458334 0 0 1 0,-26.458334 A 24.125172,26.458334 0 0 1 0,-26.458334"
         style="fill:none;stroke:#000000;stroke-width:0.678766;stroke-dasharray:none"
         transform="rotate(53.9085)"
         id="path1380" /><path
         sodipodi:cx="0"
         sodipodi:cy="0"
         sodipodi:rx="23.900562"
         sodipodi:ry="26.458334"
         sodipodi:type="arc"
         sodipodi:arc-type="arc"
         sodipodi:start="4.712389"
         sodipodi:end="1.5707963"
         sodipodi:open="true"
         d="M 0,-26.458334 A 23.900562,26.458334 0 0 1 23.900562,0 23.900562,26.458334 0 0 1 0,26.458334"
         style="fill:none;stroke:#000000;stroke-width:0.678766;stroke-dasharray:none"
         transform="rotate(-50.024)"
         id="path1382" /><path
         sodipodi:cx="0"
         sodipodi:cy="0"
         sodipodi:rx="17.272083"
         sodipodi:ry="26.458334"
         sodipodi:type="arc"
         sodipodi:arc-type="arc"
         sodipodi:start="4.712389"
         sodipodi:end="1.5707963"
         sodipodi:open="true"
         d="M 0,-26.458334 A 17.272083,26.458334 0 0 1 17.272083,0 17.272083,26.458334 0 0 1 0,26.458334"
         style="fill:none;stroke:#000000;stroke-width:0.678766;stroke-dasharray:none"
         transform="rotate(-18.2776)"
         id="path1384" /><path
         sodipodi:cx="0"
         sodipodi:cy="0"
         sodipodi:rx="6.0158315"
         sodipodi:ry="26.458334"
         sodipodi:type="arc"
         sodipodi:arc-type="arc"
         sodipodi:start="4.712389"
         sodipodi:end="1.5707963"
         sodipodi:open="true"
         d="M 0,-26.458334 A 6.0158315,26.458334 0 0 1 6.0158315,0 6.0158315,26.458334 0 0 1 0,26.458334"
         style="fill:none;stroke:#000000;stroke-width:0.678766;stroke-dasharray:none"
         transform="rotate(-4.87412)"
         id="path1386" /></g><ellipse
       style="fill:#ffffff;fill-opacity:0.986348;stroke:#000000;stroke-width:0.7;stroke-linecap:round;stroke-linejoin:round;stroke-dasharray:none;stroke-opacity:1"
       id="path2278"
       cx="65.272011"
       cy="44.147583"
       rx="1.0115592"
       ry="1.051137" /><circle
       style="fill:#ffffff;fill-opacity:0.986348;stroke:#000000;stroke-width:0.7;stroke-linecap:round;stroke-linejoin:round;stroke-dasharray:none;stroke-opacity:1"
       id="path2278-4"
       cx="84.85495"
       cy="49.540001"
       r="1.3229166" /><ellipse
       style="fill:#ffffff;fill-opacity:0.986348;stroke:#000000;stroke-width:0.7;stroke-linecap:round;stroke-linejoin:round;stroke-dasharray:none;stroke-opacity:1"
       id="path2278-9"
       cx="71.554855"
       cy="70.543716"
       rx="1.0115592"
       ry="0.78960085" /><ellipse
       style="fill:#000000;fill-opacity:0.986348;stroke:#000000;stroke-width:0.7;stroke-linecap:round;stroke-linejoin:round;stroke-dasharray:none;stroke-opacity:1"
       id="path2278-7"
       cx="59.842106"
       cy="31.201725"
       rx="1.0115592"
       ry="1.051137" /><ellipse
       style="fill:#000000;fill-opacity:0.986348;stroke:#000000;stroke-width:0.7;stroke-linecap:round;stroke-linejoin:round;stroke-dasharray:none;stroke-opacity:1"
       id="path2278-7-3"
       cx="64.393173"
       cy="56.270477"
       rx="1.0115592"
       ry="1.051137" /><g
       aria-label="1"
       id="text4838"
       style="font-size:7.27628px;font-family:Arial;-inkscape-font-specification:Arial;fill-opacity:0.986348;stroke-width:0.7;stroke-linecap:round;stroke-linejoin:round"
       inkscape:path-effect="#path-effect10920"
       transform="translate(103.03261,-40.318614)"><path
         d="m -30.870626,76.750168 -0.637031,0 0.04602,-4.28657 c -0.120522,0.118327 -0.281141,0.238275 -0.482998,0.359928 -0.203692,0.12392 -0.388915,0.218032 -0.554034,0.281069 l 0.04214,-0.528877 c 0.286721,-0.133843 0.534493,-0.293538 0.743332,-0.477267 0.203145,-0.178721 0.343856,-0.348316 0.424751,-0.509415 l 0.296434,0.0047 z"
         id="path10917"
         inkscape:original-d="m -30.870626,76.750168 h -0.639517 v -4.075143 q -0.230936,0.220278 -0.607541,0.440556 -0.373051,0.220278 -0.671492,0.330417 v -0.6182 q 0.536483,-0.252254 0.937958,-0.611094 0.401474,-0.35884 0.568459,-0.696362 h 0.412133 z"
         inkscape:path-effect="#path-effect10922" /></g><g
       aria-label="4"
       id="text4838-0"
       style="font-size:7.05556px;font-family:Arial;-inkscape-font-specification:Arial;fill-opacity:0.986348;stroke-width:0.678766;stroke-linecap:round;stroke-linejoin:round;stroke-dasharray:none"
       inkscape:path-effect="#path-effect6372"
       transform="matrix(1.0312825,0,0,1.0312825,-3.6039603,3.2364896)"><path
         d="m 60.272488,52.872137 0.05753,-1.05371 -2.193704,-0.358672 -0.0059,-0.52192 2.538076,-2.957471 0.570878,0.08725 -0.245498,3.334283 0.701641,0.113712 -0.0491,0.518056 -0.690742,-0.112936 -0.07747,1.052214 z m 0.08589,-1.573235 0.123098,-2.254832 -1.733728,1.993806 z"
         style="stroke-width:0.678766;stroke-dasharray:none"
         id="path6369"
         inkscape:original-d="m 60.256496,52.691612 v -1.209229 h -2.191082 v -0.568441 l 2.30477,-3.272843 h 0.50643 v 3.272843 h 0.682129 v 0.568441 h -0.682129 v 1.209229 z m 0,-1.77767 v -2.27721 l -1.5813,2.27721 z"
         inkscape:path-effect="#path-effect6470" /></g></g><g
     inkscape:groupmode="layer"
     id="layer3"
     inkscape:label="Layer 3" /><path
     style="fill:#000000;fill-opacity:1;stroke:none;stroke-width:1.2;stroke-linecap:round;stroke-linejoin:bevel;stroke-dasharray:none;stroke-opacity:1"
     d="m 96.389896,25.476104 c 0,0 2.562285,1.697814 3.378344,3.333303 0.84285,1.689174 1.14864,2.905379 0.8108,4.977432 -0.33782,2.072053 -1.689166,5.180134 -3.69365,7.162096 -2.004493,1.981965 -5.758602,4.33968 -9.189109,5.788237 -3.430507,1.448557 -12.319702,3.312454 -15.112469,3.671974 -2.792776,0.359519 -8.077029,0.980147 -10.496765,1.665815 -2.074935,0.587964 -5.719303,2.354448 -7.340914,3.671138 -1.621603,1.31669 -3.563598,3.56058 -3.806273,5.337787 -0.202533,1.48324 -0.135255,3.45439 0.229716,3.93608 0.36497,0.48169 -0.596985,-0.48423 -0.596985,-0.48423 0,0 -1.00774,-2.18714 -0.782517,-4.01144 0.225224,-1.824307 1.416002,-5.027211 2.927648,-6.819657 2.191866,-2.599022 3.717578,-4.092487 8.424754,-5.368384 4.707176,-1.275897 2.039282,-0.05937 13.288162,-2.680154 11.24888,-2.620791 14.248374,-4.658501 17.950282,-7.409842 3.701906,-2.751342 5.47293,-5.325049 5.833283,-7.725156 0.360354,-2.400105 -0.1985,-3.130601 -0.538433,-3.581048 -0.339942,-0.450446 -1.285874,-1.463951 -1.285874,-1.463951 z"
     id="path10980"
     sodipodi:nodetypes="cssszssssscsszzzssc" /><path
     id="path10980-7"
     style="fill:#60994e;fill-opacity:1;stroke:none;stroke-width:1.2;stroke-linecap:round;stroke-linejoin:bevel;stroke-dasharray:none;stroke-opacity:1"
     d="m 99.254529,30.91503 c -0.603288,3.183955 -2.963749,5.624687 -5.392081,7.590603 -2.968651,2.393455 -6.298069,4.351937 -9.908035,5.604487 -4.636154,1.654182 -9.465472,2.680078 -14.265357,3.731264 -2.750708,0.6509 -5.586538,0.852551 -8.31922,1.579173 -2.265272,0.578553 -4.705798,1.657539 -6.364353,3.506592 -1.258202,1.22482 -2.515092,2.55531 -3.114768,4.24021 1.73383,-2.15661 4.134213,-3.63142 6.64579,-4.718838 2.012271,-0.966634 4.134865,-1.716631 6.358471,-1.998418 4.958903,-0.747767 9.972048,-1.222658 14.840456,-2.477873 3.976603,-0.886715 7.998013,-1.946742 11.476814,-4.147293 2.808924,-1.616007 5.645118,-3.582952 7.087578,-6.592369 1.040603,-2.022354 1.812766,-4.441738 1.016446,-6.684207 -0.02059,0.122223 -0.04119,0.244446 -0.06178,0.366669 z" /><path
     id="path10980-7-0"
     style="fill:#80ac5e;fill-opacity:1;stroke:none;stroke-width:1.2;stroke-linecap:round;stroke-linejoin:bevel;stroke-dasharray:none;stroke-opacity:1"
     d="m 99.315782,30.541823 -0.06197,0.366386 c -0.603287,3.183952 -2.963585,5.624837 -5.391917,7.59075 -2.968652,2.393454 -6.297955,4.351761 -9.907921,5.60431 -4.636153,1.65418 -9.465912,2.68037 -14.265797,3.731555 -1.456108,0.34456 -5.36234,0.987676 -6.838237,1.224971 1.522112,0.0716 6.290111,-0.383163 9.022601,-0.901994 4.841981,-0.919365 11.235764,-2.306808 15.077633,-3.922757 3.556595,-1.495959 7.534522,-3.819966 9.771263,-6.820219 1.235342,-1.657027 1.534565,-2.34392 1.888494,-3.234938 0.56065,-1.411438 0.690133,-2.653278 0.759635,-3.476317 -0.01734,-0.0541 -0.03458,-0.107846 -0.05373,-0.161747 z"
     sodipodi:nodetypes="ccccccssssccc" /><path
     style="fill:#000000;fill-opacity:0.349153;stroke:none;stroke-width:1.2;stroke-linecap:round;stroke-linejoin:bevel;stroke-dasharray:none;stroke-opacity:1"
     d="m 96.51546,25.56177 c -1.269651,-0.749601 -1.86268,-0.927745 -3.967852,-1.221994 -2.105172,-0.294249 -5.357347,-0.09284 -5.357347,-0.09284 l 2.120847,1.480112 c 0,0 4.249578,0.324215 6.774785,1.786178 2.525206,1.46196 2.562027,2.264914 2.741748,2.556312 -0.05316,0.797433 -0.313822,-2.73919 -0.313822,-2.73919 0,0 -0.728709,-1.018977 -1.998359,-1.768578 z"
     id="path27716"
     sodipodi:nodetypes="zzccsccz" /><path
     style="fill:#000000;fill-opacity:1;stroke:none;stroke-width:1.2;stroke-linecap:round;stroke-linejoin:bevel;stroke-dasharray:none;stroke-opacity:1"
     d="m 71.407255,67.330786 c 0,0 4.806996,-3.62976 6.110666,-4.9467 1.743287,-1.76103 3.584435,-3.342777 3.584435,-3.342777 l -1.651257,-1.04714 c 0,0 1.920404,-0.51812 2.827139,-0.82524 0.906735,-0.307118 3.539189,-1.257726 3.539189,-1.257726 0,0 -0.687364,1.945086 -1.023734,3.071196 -0.336367,1.126097 -0.921359,3.085817 -0.921359,3.085817 l -1.096854,-1.76959 c 0,0 -2.076714,1.95971 -3.129695,2.76407 -1.052983,0.80436 -2.105964,1.57948 -3.670811,2.33996 -1.564849,0.76049 -4.567719,1.92813 -4.567719,1.92813 z"
     id="path30256"
     sodipodi:nodetypes="csccscsccssc" /></svg>
