<?xml version="1.0" encoding="UTF-8" standalone="no"?>
<!DOCTYPE svg PUBLIC "-//W3C//DTD SVG 1.1//EN" "http://www.w3.org/Graphics/SVG/1.1/DTD/svg11.dtd">
<svg width="100%" height="100%" viewBox="0 0 16 16" version="1.1" xmlns="http://www.w3.org/2000/svg" xmlns:xlink="http://www.w3.org/1999/xlink" xml:space="preserve" xmlns:serif="http://www.serif.com/" style="fill-rule:evenodd;clip-rule:evenodd;stroke-linejoin:round;stroke-miterlimit:2;">
    <g>
        <g transform="matrix(1.1,2.69713e-17,-2.3495e-17,1.1,-1.2,8.4484)">
            <rect x="2" y="2" width="4" height="4" style="fill:rgb(255,2,0);"/>
        </g>
        <g transform="matrix(1.1,2.69713e-17,-2.3495e-17,1.1,3.59563,8.4484)">
            <rect x="2" y="2" width="4" height="4" style="fill:rgb(0,216,2);"/>
        </g>
        <g transform="matrix(1.1,2.69713e-17,-2.3495e-17,1.1,8.39126,8.4484)">
            <rect x="2" y="2" width="4" height="4" style="fill:rgb(1,0,255);"/>
        </g>
        <g transform="matrix(1.1,2.69713e-17,-2.3495e-17,1.1,-1.2,3.5984)">
            <rect x="2" y="2" width="4" height="4" style="fill:rgb(255,169,0);"/>
        </g>
        <g transform="matrix(1.1,2.69713e-17,-2.3495e-17,1.1,3.59563,3.5984)">
            <rect x="2" y="2" width="4" height="4" style="fill:rgb(164,122,87);"/>
        </g>
        <g transform="matrix(1.1,2.0678e-17,-2.3495e-17,1.1,8.39126,3.5984)">
            <rect x="2" y="2" width="4" height="4" style="fill:rgb(170,0,255);"/>
        </g>
        <g transform="matrix(1.1,2.69713e-17,-2.3495e-17,1.1,-1.2,-1.2516)">
            <rect x="2" y="2" width="4" height="4" style="fill:rgb(237,255,0);"/>
        </g>
        <g transform="matrix(1.1,2.69713e-17,-2.3495e-17,1.1,3.59563,-1.2516)">
            <rect x="2" y="2" width="4" height="4" style="fill:rgb(0,215,255);"/>
        </g>
        <g transform="matrix(1.1,0,-1.08555e-16,1.1,8.39126,-1.2516)">
            <rect x="2" y="2" width="4" height="4" style="fill:rgb(255,0,170);"/>
        </g>
    </g>
    <path d="M14,1C14.549,1 15,1.451 15,2L15,14C15,14.549 14.549,15 14,15L2,15C1.451,15 1,14.549 1,14L1,2C1,1.451 1.451,1 2,1L14,1ZM2,0C0.903,0 -0,0.903 0,2L0,14C0,15.097 0.903,16 2,16L14,16C15.097,16 16,15.097 16,14L16,2C16,0.903 15.097,0 14,0L2,0Z" style="fill-rule:nonzero;"/>
</svg>
